<?xml version="1.0" encoding="UTF-8" standalone="no"?>
<!DOCTYPE svg PUBLIC "-//W3C//DTD SVG 1.1//EN" "http://www.w3.org/Graphics/SVG/1.1/DTD/svg11.dtd">
<svg xmlns="http://www.w3.org/2000/svg" version="1.1" viewBox="0.00 0.00 1808.00 504.00">
<path fill="#151618" d="
  M 1078.61 317.14
  Q 1079.55 317.71 1082.04 317.99
  Q 1090.80 318.96 1101.75 318.18
  C 1106.43 317.85 1110.14 316.12 1114.56 315.12
  A 2.44 2.09 -19.4 0 1 1117.11 316.11
  Q 1118.41 318.50 1121.76 318.43
  Q 1132.55 318.22 1158.72 318.98
  Q 1167.27 319.22 1170.11 327.38
  C 1173.11 336.01 1172.67 345.70 1167.49 353.40
  C 1165.71 356.03 1164.71 358.69 1161.23 360.45
  Q 1157.55 362.33 1151.97 364.95
  A 12.03 11.32 -63.1 0 1 1150.06 365.64
  C 1140.54 368.07 1129.47 367.18 1120.43 367.93
  A 1.58 1.57 7.5 0 0 1119.07 368.97
  C 1117.99 371.97 1115.67 378.27 1116.85 381.71
  Q 1119.80 390.28 1117.63 396.66
  Q 1117.36 397.47 1114.62 400.56
  A 7.11 6.75 -9.8 0 0 1113.89 401.54
  C 1110.55 406.82 1107.51 412.10 1106.93 418.25
  Q 1106.72 420.49 1106.53 428.75
  C 1106.40 434.37 1100.85 437.08 1095.85 437.98
  C 1090.50 438.94 1086.15 441.01 1081.24 442.42
  C 1077.93 443.36 1075.33 445.08 1072.79 446.19
  A 10.53 10.11 -73.7 0 0 1070.79 447.34
  Q 1065.45 451.26 1060.65 453.27
  C 1054.59 455.80 1050.22 453.24 1045.12 450.22
  Q 1043.82 449.46 1040.88 449.04
  Q 1033.34 447.97 1028.29 446.27
  Q 1023.39 444.61 1021.95 439.83
  Q 1018.67 428.97 1017.75 425.17
  A 4.96 4.96 0.0 0 0 1017.00 423.51
  Q 1013.88 419.03 1011.61 409.14
  Q 1010.99 406.43 1007.54 405.66
  Q 1000.97 404.17 1000.63 404.11
  C 997.28 403.49 997.44 400.19 996.59 397.75
  A 1.85 1.84 10.5 0 0 996.00 396.90
  C 991.46 393.20 979.94 394.53 975.14 395.78
  C 972.39 396.49 970.47 396.01 968.58 394.26
  A 1.62 1.62 0.0 0 1 968.26 392.26
  Q 969.91 389.35 970.74 386.33
  C 972.20 381.00 974.28 378.27 977.92 374.46
  Q 981.05 371.19 984.49 365.03
  C 985.99 362.36 991.03 361.34 992.63 359.62
  Q 995.36 356.69 995.96 355.95
  C 998.83 352.45 1002.53 351.71 1006.35 349.65
  Q 1011.21 347.01 1015.59 345.30
  C 1020.30 343.46 1023.74 341.21 1024.09 335.82
  Q 1024.59 328.23 1025.55 326.27
  Q 1028.89 319.43 1028.91 319.38
  C 1031.48 311.19 1034.20 305.60 1040.78 300.54
  Q 1041.61 299.90 1041.78 298.28
  A 1.19 1.18 -86.2 0 0 1040.64 296.97
  Q 1039.02 296.92 1037.80 297.55
  Q 1031.04 301.05 1024.49 304.38
  Q 1018.94 307.19 1015.17 307.59
  C 1007.47 308.41 999.48 305.76 995.09 299.15
  C 993.36 296.55 996.71 292.22 998.49 290.50
  C 1003.47 285.67 1010.08 280.31 1018.36 275.59
  Q 1022.40 273.29 1029.27 268.88
  C 1035.74 264.72 1042.82 263.59 1049.13 259.75
  Q 1055.56 255.83 1055.69 255.77
  A 12.82 2.74 -24.3 0 0 1057.35 255.06
  Q 1058.37 254.60 1065.55 252.47
  A 16.03 15.86 -67.1 0 0 1068.51 251.25
  Q 1077.78 246.34 1084.70 243.97
  Q 1091.69 241.59 1100.76 242.71
  C 1105.51 243.29 1111.81 246.80 1115.38 248.61
  A 4.60 4.59 -84.3 0 1 1117.74 251.50
  L 1119.44 257.63
  A 2.06 2.05 -5.3 0 0 1121.25 259.13
  Q 1129.02 259.79 1135.85 257.45
  Q 1137.32 256.94 1144.77 253.07
  A 7.91 7.86 -85.6 0 0 1147.57 250.65
  Q 1149.51 247.97 1150.95 246.71
  Q 1160.89 238.04 1170.68 231.72
  Q 1176.13 228.20 1177.78 226.08
  Q 1180.35 222.77 1182.45 218.33
  A 1.40 1.39 46.1 0 0 1182.47 217.20
  C 1179.87 211.10 1171.15 209.20 1165.25 209.51
  Q 1159.08 209.84 1147.82 209.92
  A 12.25 12.19 32.7 0 0 1142.98 210.96
  Q 1133.52 215.15 1122.86 218.86
  C 1119.53 220.02 1115.23 220.43 1112.52 221.00
  Q 1109.77 221.59 1106.09 223.34
  Q 1103.27 224.67 1097.62 226.53
  A 14.27 14.00 22.3 0 0 1095.70 227.31
  Q 1089.24 230.48 1085.75 230.97
  Q 1078.01 232.07 1074.62 233.60
  Q 1070.81 235.31 1058.29 240.81
  C 1055.72 241.94 1054.04 242.17 1051.80 242.85
  A 15.96 15.63 -66.6 0 0 1049.06 243.97
  C 1040.23 248.55 1035.36 250.95 1028.20 253.95
  C 1023.19 256.05 1017.83 260.35 1012.90 262.77
  C 1006.95 265.70 1003.92 267.89 998.60 270.84
  Q 995.76 272.41 993.08 274.41
  Q 982.24 282.46 972.54 292.43
  C 969.34 295.71 967.31 299.18 964.31 303.50
  Q 963.55 304.59 961.53 308.29
  Q 958.47 313.87 952.10 327.30
  Q 949.40 332.99 948.15 338.56
  Q 947.47 341.58 947.52 350.46
  Q 947.55 355.22 947.55 365.25
  Q 947.55 374.39 942.61 381.86
  C 939.63 386.37 936.86 391.71 933.27 393.28
  A 0.94 0.94 0.0 0 1 932.43 393.24
  L 927.29 390.27
  A 1.97 1.96 24.2 0 0 924.44 391.35
  C 923.63 393.79 923.80 396.81 923.61 402.80
  Q 923.53 405.26 920.69 404.77
  C 917.34 404.19 913.08 398.99 910.46 395.89
  Q 905.79 390.38 906.18 382.52
  Q 906.51 375.80 906.66 371.78
  C 906.85 366.44 908.29 362.35 910.36 357.12
  A 16.83 16.54 -31.4 0 0 911.42 352.89
  C 912.15 346.60 912.41 340.59 914.09 334.62
  C 915.26 330.46 916.36 327.22 916.81 323.48
  Q 918.33 310.67 918.39 307.29
  Q 918.63 293.61 918.87 287.98
  Q 919.02 284.57 921.85 271.97
  C 923.26 265.69 923.41 263.55 924.18 256.70
  C 924.76 251.65 925.68 246.68 927.17 242.26
  Q 928.82 237.31 931.31 229.33
  Q 932.49 225.55 936.54 221.59
  C 938.66 219.51 941.18 220.72 942.73 222.54
  Q 949.18 230.12 954.59 233.50
  A 8.26 8.18 87.7 0 1 956.91 235.66
  Q 959.51 239.23 963.44 243.55
  C 965.62 245.95 969.01 249.37 972.41 248.29
  C 978.04 246.49 982.79 242.01 986.96 237.44
  Q 989.31 234.87 989.45 231.48
  Q 990.26 211.46 988.47 187.56
  C 988.30 185.23 987.79 183.68 986.67 181.60
  A 4.10 4.09 34.4 0 1 986.22 179.20
  C 986.95 173.16 988.46 166.38 988.86 159.89
  Q 989.19 154.78 989.75 153.48
  Q 992.65 146.79 994.55 142.29
  A 1.04 0.87 66.3 0 0 994.63 142.01
  L 995.33 135.14
  A 1.47 1.46 -0.3 0 1 996.63 133.84
  Q 998.54 133.62 999.28 133.92
  Q 1000.09 134.23 1000.80 135.98
  Q 1001.65 138.04 1003.44 143.26
  C 1005.68 149.76 1002.30 156.25 1001.06 162.26
  C 1000.39 165.53 1002.14 168.72 1004.06 172.95
  C 1008.20 182.04 1005.57 190.51 1007.01 201.08
  Q 1007.19 202.40 1009.04 205.16
  Q 1012.57 210.43 1014.15 217.59
  Q 1014.51 219.22 1015.46 219.80
  A 1.27 1.27 0.0 0 0 1017.33 219.09
  C 1018.06 216.67 1018.46 213.06 1018.46 210.40
  Q 1018.34 177.64 1018.42 170.56
  Q 1018.50 163.75 1021.07 157.31
  C 1022.51 153.70 1023.58 151.10 1023.89 147.14
  Q 1024.40 140.50 1024.27 133.00
  Q 1024.04 119.34 1024.34 108.50
  A 1.82 1.80 -0.5 0 1 1026.08 106.74
  C 1028.54 106.64 1030.74 107.02 1032.87 108.64
  C 1036.88 111.70 1040.00 114.93 1040.82 119.97
  Q 1041.76 125.81 1041.90 131.50
  Q 1041.96 133.90 1041.85 161.01
  Q 1041.84 163.90 1041.01 170.92
  Q 1040.73 173.27 1038.58 180.53
  Q 1035.76 190.01 1036.03 200.99
  C 1036.09 203.50 1035.84 206.37 1036.79 208.94
  A 1.46 1.45 -21.7 0 0 1038.72 209.77
  Q 1040.24 209.13 1041.06 207.52
  Q 1049.00 191.84 1055.82 178.33
  Q 1059.61 170.83 1059.57 162.01
  Q 1059.55 157.65 1058.48 155.69
  C 1056.67 152.39 1054.00 149.18 1055.49 145.93
  A 1.77 1.72 83.7 0 1 1056.02 145.25
  C 1060.10 141.94 1059.91 132.62 1056.70 128.97
  C 1053.43 125.26 1053.28 120.29 1054.03 115.84
  A 3.50 3.50 0.0 0 1 1056.53 113.06
  Q 1061.81 111.57 1066.55 108.80
  C 1070.28 106.61 1071.46 99.74 1071.52 95.76
  Q 1071.68 85.94 1071.96 72.73
  Q 1072.02 70.04 1072.65 69.41
  C 1074.67 67.38 1078.91 68.56 1080.98 70.03
  Q 1085.77 73.41 1090.71 78.50
  A 3.99 3.62 -84.3 0 1 1091.31 79.31
  Q 1092.36 81.17 1094.46 83.37
  Q 1099.75 88.90 1103.83 91.05
  A 4.47 4.42 -3.7 0 1 1105.37 92.39
  Q 1106.69 94.26 1107.52 96.76
  C 1108.32 99.18 1109.00 99.74 1110.64 101.49
  C 1113.40 104.43 1112.46 106.89 1109.32 108.92
  Q 1104.68 111.92 1102.30 114.05
  Q 1097.61 118.24 1089.71 124.82
  A 1.77 1.76 -54.0 0 0 1090.18 127.81
  C 1092.94 128.93 1099.51 125.13 1102.20 123.38
  Q 1107.11 120.18 1111.71 115.51
  A 8.84 8.53 4.0 0 1 1112.88 114.53
  C 1114.72 113.28 1117.01 111.41 1119.03 110.27
  Q 1128.38 104.99 1132.35 102.56
  A 7.38 7.29 -66.9 0 1 1134.60 101.64
  Q 1140.06 100.42 1146.01 101.04
  C 1152.78 101.74 1146.89 111.17 1144.96 114.00
  A 6.14 6.12 -20.0 0 0 1144.14 115.75
  C 1141.34 125.25 1142.15 133.05 1142.09 145.75
  C 1142.06 152.36 1142.34 157.89 1139.22 163.63
  C 1136.43 168.75 1135.53 172.31 1136.89 177.55
  C 1138.00 181.81 1150.63 185.70 1154.61 186.91
  C 1160.08 188.56 1165.28 187.98 1172.50 188.19
  C 1180.95 188.45 1188.60 192.58 1197.03 193.94
  A 7.18 7.07 -27.8 0 1 1198.76 194.46
  L 1205.24 197.39
  A 4.82 4.73 -25.0 0 0 1206.09 197.69
  C 1209.91 198.69 1213.79 199.13 1216.87 200.93
  C 1225.22 205.81 1232.10 211.57 1231.01 221.96
  Q 1230.87 223.30 1228.72 229.12
  Q 1227.15 233.39 1225.64 235.97
  C 1222.92 240.62 1221.49 244.55 1218.63 248.61
  Q 1212.59 257.17 1210.66 258.92
  C 1203.28 265.58 1195.31 268.89 1186.20 272.93
  Q 1182.65 274.50 1177.24 274.55
  Q 1162.71 274.68 1157.75 274.77
  C 1153.97 274.84 1150.79 276.17 1147.10 278.53
  C 1141.44 282.15 1134.43 285.36 1127.53 285.77
  C 1121.62 286.12 1118.30 286.86 1112.77 289.07
  C 1109.44 290.41 1107.00 290.80 1103.94 291.45
  A 9.80 9.39 26.5 0 0 1102.33 291.95
  C 1097.67 293.85 1093.08 296.24 1090.20 300.45
  C 1086.79 305.44 1085.38 307.78 1082.08 311.70
  Q 1078.76 315.64 1078.39 316.31
  A 0.62 0.61 -60.4 0 0 1078.61 317.14
  Z
  M 1060.88 394.09
  Q 1064.21 394.92 1068.54 394.21
  A 3.29 3.28 10.1 0 0 1070.83 392.62
  L 1075.56 384.42
  A 1.63 1.63 0.0 0 0 1073.76 382.02
  L 1069.46 383.07
  A 1.65 0.84 18.0 0 1 1069.27 383.10
  L 1061.74 383.96
  A 1.98 1.98 0.0 0 0 1060.04 385.47
  Q 1059.03 389.68 1059.57 392.69
  A 1.77 1.76 2.1 0 0 1060.88 394.09
  Z"
/>
<path fill="#151618" d="
  M 357.84 229.72
  A 0.94 0.93 87.6 0 1 357.01 230.63
  C 348.69 231.59 339.93 231.95 331.68 230.53
  C 327.53 229.82 324.08 229.30 320.42 229.65
  Q 314.32 230.23 307.36 231.38
  Q 303.66 231.99 301.03 233.78
  Q 288.46 242.35 272.98 249.45
  Q 270.90 250.40 267.42 251.14
  Q 260.53 252.59 256.29 253.35
  C 245.44 255.29 235.12 259.87 226.77 266.68
  C 220.01 272.20 213.21 276.49 206.84 279.76
  Q 202.30 282.09 197.56 277.79
  A 1.69 1.66 -18.8 0 0 196.69 277.37
  Q 195.26 277.15 193.04 277.79
  Q 185.65 279.90 179.48 283.70
  Q 177.75 284.76 172.77 285.75
  Q 168.79 286.54 162.52 289.50
  Q 160.53 290.44 159.18 290.66
  C 153.05 291.67 150.00 292.22 144.19 294.00
  Q 138.26 295.83 136.01 296.06
  Q 129.94 296.68 111.01 296.91
  C 104.71 296.99 99.75 296.24 95.27 292.13
  Q 89.66 287.00 87.96 283.20
  Q 86.98 281.00 86.93 275.07
  C 86.85 265.30 86.54 258.98 87.51 251.50
  Q 87.68 250.15 89.82 248.82
  Q 100.66 242.04 100.73 241.99
  Q 103.96 239.87 110.75 233.91
  Q 134.59 212.97 142.82 204.33
  Q 144.53 202.53 149.98 195.12
  Q 152.43 191.78 156.33 185.34
  Q 160.69 178.12 162.91 175.65
  Q 170.98 166.62 177.97 158.46
  C 180.14 155.93 183.47 152.99 185.80 150.31
  Q 189.62 145.91 195.46 140.21
  Q 199.69 136.08 202.59 131.59
  C 204.55 128.56 205.19 124.78 206.45 121.49
  C 207.54 118.65 210.11 113.23 210.66 108.38
  Q 210.76 107.57 211.04 90.52
  C 211.11 86.07 213.60 81.46 215.48 77.72
  Q 216.23 76.23 217.25 69.62
  A 1.09 1.08 -5.0 0 1 217.98 68.76
  C 219.34 68.31 221.88 68.41 222.06 70.53
  Q 222.50 75.80 222.79 79.51
  A 1.52 1.51 -9.1 0 0 224.66 80.86
  Q 233.30 78.73 242.88 79.62
  Q 245.37 79.85 248.23 81.86
  A 3.43 3.34 88.0 0 1 248.95 82.55
  C 250.63 84.73 252.89 89.12 256.39 89.51
  Q 265.15 90.51 272.85 95.68
  Q 274.75 96.96 275.32 98.19
  C 278.74 105.57 282.80 111.16 279.37 118.95
  Q 276.99 124.35 275.09 130.61
  Q 273.79 134.86 271.06 139.33
  C 264.62 149.85 254.15 161.99 249.69 168.67
  C 247.97 171.23 244.24 177.11 247.72 178.75
  A 1.80 1.79 -35.8 0 0 248.73 178.91
  Q 256.71 177.87 262.28 177.03
  Q 267.27 176.27 269.43 172.19
  Q 274.46 162.73 277.76 154.62
  Q 281.02 146.62 283.07 142.49
  Q 284.07 140.48 288.77 130.54
  C 291.90 123.94 298.74 123.37 307.01 121.27
  C 310.36 120.42 311.75 119.50 315.24 118.04
  Q 317.79 116.98 320.39 118.74
  Q 330.17 125.35 332.32 127.85
  Q 334.96 130.91 337.00 132.99
  C 341.15 137.23 344.39 141.82 346.41 147.17
  Q 348.01 151.43 349.92 154.71
  C 354.22 162.09 358.09 169.15 358.14 178.04
  Q 358.29 209.23 357.84 229.72
  Z"
/>
<path fill="#151618" d="
  M 1474.09 178.82
  C 1482.67 177.66 1489.68 173.51 1496.73 168.55
  C 1500.01 166.24 1503.26 165.11 1506.30 162.82
  C 1509.66 160.29 1512.23 157.98 1516.26 155.52
  Q 1523.66 151.00 1529.38 147.55
  A 3.62 3.62 0.0 0 0 1531.13 144.20
  C 1530.87 140.43 1528.55 136.22 1526.59 132.37
  A 8.40 8.10 -66.8 0 1 1525.94 130.65
  Q 1524.99 126.84 1521.93 120.79
  Q 1517.89 112.79 1519.81 103.89
  A 2.93 2.92 87.6 0 1 1521.82 101.70
  C 1530.74 98.94 1533.61 98.40 1539.92 94.15
  Q 1545.26 90.55 1547.55 90.27
  C 1552.90 89.62 1556.03 89.56 1560.77 93.21
  Q 1564.57 96.13 1574.49 103.23
  Q 1576.38 104.59 1580.66 111.51
  Q 1583.32 115.83 1585.62 121.04
  A 3.27 3.27 0.0 0 0 1587.96 122.93
  Q 1592.19 123.78 1596.74 122.94
  C 1604.15 121.57 1611.11 119.12 1618.34 115.90
  C 1624.75 113.04 1631.80 111.59 1638.03 111.66
  Q 1645.02 111.74 1650.91 116.32
  Q 1657.71 121.59 1663.78 127.36
  Q 1665.28 128.78 1665.69 130.92
  Q 1667.75 141.76 1672.82 147.93
  C 1674.60 150.11 1678.73 156.32 1677.51 159.00
  Q 1674.94 164.69 1669.59 170.85
  C 1666.92 173.93 1664.21 175.46 1659.80 177.05
  Q 1648.92 180.95 1640.14 188.03
  Q 1633.03 193.76 1630.96 195.04
  Q 1617.23 203.57 1603.46 209.18
  A 3.55 3.53 -45.7 0 1 1600.89 209.22
  Q 1597.40 207.92 1594.93 205.60
  Q 1585.38 196.64 1580.23 194.33
  Q 1574.73 191.86 1569.66 193.55
  A 3.36 3.34 -0.9 0 0 1567.51 195.76
  C 1565.69 201.82 1565.47 206.20 1559.88 210.38
  C 1549.56 218.10 1540.41 225.79 1528.86 232.81
  C 1521.04 237.56 1514.10 242.82 1509.73 242.58
  A 2.85 2.82 -10.2 0 1 1507.30 240.91
  C 1506.06 238.13 1505.22 235.34 1505.56 231.95
  Q 1506.57 221.86 1510.38 212.59
  C 1511.87 208.97 1514.54 205.90 1516.39 202.42
  Q 1517.66 200.02 1520.31 196.67
  C 1526.25 189.15 1532.92 182.73 1541.10 178.62
  Q 1546.61 175.85 1551.49 173.79
  C 1554.41 172.54 1562.55 170.22 1565.14 172.45
  C 1566.31 173.46 1566.83 177.07 1567.65 180.33
  A 1.54 1.53 13.2 0 0 1568.15 181.13
  Q 1570.29 182.90 1573.18 181.90
  C 1580.21 179.48 1584.93 178.22 1590.22 174.22
  C 1596.92 169.16 1604.14 164.11 1609.27 157.66
  C 1613.64 152.16 1617.42 147.77 1619.59 141.27
  A 1.49 1.48 -76.3 0 0 1618.41 139.33
  Q 1608.13 137.77 1598.95 140.69
  C 1590.58 143.35 1583.21 146.00 1575.74 150.21
  C 1570.17 153.35 1562.60 157.72 1554.83 160.27
  C 1543.83 163.88 1537.08 165.87 1528.84 166.82
  A 7.57 7.52 -58.0 0 0 1527.05 167.24
  Q 1521.34 169.36 1517.53 172.04
  Q 1504.26 181.37 1503.33 182.07
  C 1499.36 185.07 1495.59 188.64 1494.63 193.83
  C 1493.64 199.12 1492.66 202.53 1489.23 206.23
  Q 1485.79 209.96 1478.50 217.24
  C 1475.14 220.59 1473.67 223.60 1472.69 228.79
  Q 1471.52 234.96 1470.38 237.63
  Q 1466.67 246.37 1458.50 252.50
  C 1449.89 258.95 1442.84 265.67 1432.36 264.36
  C 1428.95 263.93 1430.13 255.73 1430.46 252.79
  C 1431.59 242.49 1430.09 232.04 1433.86 222.24
  C 1436.05 216.54 1436.81 211.46 1437.16 205.96
  Q 1437.39 202.39 1439.46 198.98
  C 1442.04 194.72 1442.95 191.02 1445.09 186.01
  C 1447.75 179.82 1449.97 171.50 1452.02 166.48
  Q 1452.71 164.78 1456.44 158.11
  C 1457.89 155.52 1459.90 153.45 1461.81 151.65
  A 2.11 2.11 0.0 0 1 1465.05 152.08
  Q 1465.32 152.51 1470.27 160.96
  C 1472.49 164.76 1472.75 172.71 1472.93 177.84
  A 1.03 1.02 85.2 0 0 1474.09 178.82
  Z"
/>
<path fill="#151618" d="
  M 802.83 408.94
  C 801.60 408.38 800.88 406.23 799.15 405.67
  Q 796.49 404.80 793.81 405.85
  A 2.98 2.97 86.0 0 0 792.01 407.93
  C 790.93 412.60 790.26 417.61 787.94 421.44
  Q 786.62 423.64 784.02 423.17
  Q 777.73 422.06 772.72 421.91
  C 770.20 421.83 770.28 423.87 768.72 424.94
  A 1.66 1.61 71.8 0 1 766.19 423.61
  Q 766.06 420.99 764.42 419.13
  A 3.23 3.18 -8.2 0 0 763.29 418.30
  C 760.34 417.03 756.43 415.56 754.28 413.00
  C 748.81 406.50 744.10 400.49 737.51 394.03
  Q 731.50 388.16 727.85 383.65
  C 725.30 380.50 723.80 377.65 723.15 373.48
  Q 722.81 371.32 721.95 367.08
  C 720.66 360.65 710.46 362.81 711.91 355.13
  Q 712.31 352.97 714.23 352.53
  C 720.65 351.05 724.19 347.99 728.87 343.92
  C 732.99 340.35 734.96 336.28 735.25 330.74
  Q 735.51 325.63 735.49 318.50
  Q 735.42 296.20 735.47 272.75
  Q 735.48 271.62 735.22 255.75
  Q 735.17 253.16 732.87 252.95
  C 728.95 252.58 724.43 267.22 722.44 272.71
  C 721.08 276.45 716.50 275.09 713.86 273.36
  Q 706.03 268.21 700.33 265.38
  C 695.70 263.08 691.72 259.83 689.83 255.85
  A 7.82 7.71 27.5 0 1 689.06 253.47
  L 687.67 244.30
  A 9.32 8.60 -61.1 0 0 687.31 242.84
  Q 684.72 235.12 676.71 223.78
  C 673.79 219.64 669.84 219.12 665.41 221.45
  A 1.37 1.35 -6.0 0 0 664.74 222.27
  Q 664.06 224.50 663.79 227.27
  C 663.28 232.41 662.87 240.35 661.21 246.85
  C 658.13 258.89 659.37 270.35 660.59 284.00
  Q 661.56 294.87 662.54 303.50
  Q 663.07 308.24 663.57 324.77
  Q 663.58 325.16 663.26 327.96
  A 6.29 6.26 -29.1 0 1 662.70 329.91
  Q 660.80 333.96 659.00 343.01
  Q 657.65 349.76 652.46 356.36
  C 648.97 360.81 646.77 363.50 641.04 361.95
  C 637.48 360.99 634.27 358.74 631.25 357.41
  C 625.21 354.74 619.25 353.02 617.90 348.32
  Q 617.67 347.51 616.83 344.53
  A 5.87 5.34 84.4 0 0 616.56 343.75
  C 615.60 341.39 613.57 338.43 612.96 335.66
  C 610.58 324.83 611.60 313.17 611.58 302.50
  Q 611.57 292.67 612.70 287.87
  C 613.84 283.02 617.14 276.33 617.34 270.25
  Q 617.70 259.58 617.81 248.03
  A 12.43 12.26 52.5 0 1 618.14 245.37
  Q 619.77 238.52 621.93 231.70
  Q 623.16 227.86 623.29 221.00
  Q 623.52 209.46 623.65 198.25
  Q 623.68 194.61 625.75 189.71
  Q 626.86 187.09 628.65 181.83
  A 7.05 6.98 56.0 0 0 629.00 179.98
  Q 629.57 167.49 629.32 163.03
  C 629.04 157.83 626.07 154.38 622.53 149.75
  Q 620.98 147.71 623.19 145.93
  Q 626.14 143.54 627.56 141.99
  A 3.25 3.24 74.1 0 0 628.32 140.62
  C 629.44 136.38 629.42 134.06 633.73 132.03
  C 642.25 128.02 646.82 129.38 654.86 132.86
  C 657.24 133.90 659.96 134.30 661.58 134.80
  A 2.15 2.13 -1.6 0 1 662.95 136.08
  L 665.17 141.88
  A 0.60 0.42 -79.7 0 0 665.22 141.99
  Q 668.41 146.84 669.19 149.52
  Q 672.43 160.68 672.87 173.70
  C 673.11 180.71 670.79 189.23 670.07 196.26
  Q 669.97 197.26 668.20 199.06
  C 665.63 201.65 664.74 204.71 664.63 208.32
  A 1.46 1.46 0.0 0 0 666.22 209.82
  Q 670.60 209.44 673.77 206.31
  C 675.30 204.78 675.76 203.09 676.87 200.58
  A 3.05 3.04 -76.9 0 1 679.79 198.76
  Q 687.21 199.07 693.54 198.84
  Q 698.21 198.67 701.50 195.83
  Q 706.78 191.26 714.67 182.93
  Q 722.47 174.70 726.06 167.80
  Q 730.07 160.11 732.70 152.98
  C 735.43 145.60 735.52 139.23 736.61 128.84
  C 737.10 124.07 738.68 122.50 740.77 119.04
  A 1.46 1.39 -26.9 0 0 740.95 118.53
  L 741.73 112.96
  A 2.59 2.58 84.4 0 1 743.43 110.88
  C 749.18 108.87 755.77 107.36 762.39 109.52
  Q 769.08 111.71 780.23 112.05
  C 786.92 112.25 793.48 117.86 797.84 122.95
  C 800.40 125.92 800.21 129.10 801.80 132.58
  Q 808.28 146.76 810.87 152.36
  C 812.06 154.94 811.98 159.95 811.97 163.59
  Q 811.88 220.93 811.94 296.25
  Q 811.95 307.39 812.80 315.00
  C 815.09 335.35 817.57 353.26 817.92 373.88
  C 818.08 382.84 818.14 388.96 814.17 395.69
  Q 810.05 402.67 804.15 408.69
  A 1.17 1.16 34.2 0 1 802.83 408.94
  Z"
/>
<path fill="#151618" d="
  M 1375.00 214.14
  A 0.82 0.82 0.0 0 0 1376.23 213.79
  C 1377.04 211.88 1377.78 209.18 1377.85 206.71
  Q 1378.33 190.31 1377.91 178.23
  Q 1377.81 175.34 1377.18 173.63
  A 1.47 1.47 0.0 0 0 1374.65 173.22
  Q 1370.35 178.63 1363.18 176.80
  C 1355.25 174.78 1352.72 168.49 1354.08 160.79
  C 1354.74 157.07 1357.81 153.07 1359.87 149.19
  Q 1361.25 146.58 1362.67 144.79
  Q 1371.46 133.70 1371.87 133.16
  C 1378.55 124.41 1386.28 119.61 1396.81 115.55
  C 1404.76 112.49 1410.95 117.53 1416.45 122.85
  C 1419.75 126.03 1420.59 129.57 1422.35 134.64
  Q 1423.50 137.94 1420.95 141.75
  Q 1416.86 147.84 1410.34 155.01
  Q 1407.07 158.61 1405.85 160.18
  C 1402.44 164.55 1399.82 167.11 1397.96 170.91
  C 1395.62 175.69 1393.46 179.70 1396.54 184.74
  Q 1398.86 188.53 1404.57 199.45
  Q 1405.32 200.87 1406.75 207.76
  Q 1407.52 211.49 1407.57 216.29
  C 1407.65 224.53 1408.22 232.67 1405.07 239.35
  Q 1395.78 259.05 1387.97 272.21
  Q 1386.52 274.65 1383.08 274.87
  C 1379.87 275.07 1373.52 275.74 1371.78 272.99
  Q 1369.96 270.10 1367.18 269.47
  A 1.75 1.74 10.7 0 1 1365.84 267.51
  Q 1366.61 262.39 1368.88 257.39
  A 1.46 1.45 -41.9 0 0 1368.94 256.35
  Q 1368.84 256.00 1367.87 255.19
  C 1365.37 253.11 1366.57 247.67 1361.98 247.85
  A 1.75 1.75 0.0 0 0 1360.30 249.59
  Q 1360.12 278.79 1360.25 341.75
  Q 1360.26 347.15 1362.51 366.68
  C 1363.22 372.85 1365.44 378.07 1365.89 384.25
  Q 1366.45 391.97 1367.93 398.65
  A 9.01 8.74 -49.1 0 1 1368.09 401.49
  Q 1367.76 404.73 1366.39 411.44
  C 1365.84 414.17 1365.31 415.20 1362.87 416.16
  Q 1354.57 419.41 1345.82 426.03
  C 1340.12 430.34 1336.16 424.75 1333.29 419.71
  Q 1322.64 401.04 1321.42 399.08
  A 7.35 7.21 20.3 0 1 1320.66 397.47
  Q 1319.14 392.90 1318.96 384.75
  C 1318.70 373.79 1318.78 361.12 1320.18 349.97
  C 1320.93 343.94 1322.93 336.86 1324.18 330.22
  C 1325.84 321.43 1323.86 310.63 1325.88 301.33
  Q 1326.36 299.09 1329.75 284.51
  Q 1330.61 280.83 1330.66 272.99
  Q 1330.80 250.37 1330.92 238.50
  Q 1330.94 236.11 1331.50 233.24
  Q 1332.70 227.12 1334.38 222.77
  C 1336.49 217.30 1337.13 210.31 1337.40 205.94
  C 1337.81 198.98 1342.71 200.67 1346.18 198.20
  A 5.31 5.01 1.7 0 0 1347.08 197.40
  Q 1350.49 193.51 1355.57 189.94
  A 2.15 2.14 43.7 0 1 1357.95 189.89
  Q 1365.56 194.78 1370.79 199.23
  C 1371.98 200.24 1372.26 201.89 1372.30 203.74
  C 1372.36 206.48 1372.96 212.70 1375.00 214.14
  Z"
/>
<path fill="#151618" d="
  M 544.28 219.22
  C 546.46 221.06 553.11 220.47 556.32 219.93
  Q 559.68 219.37 561.77 219.61
  C 567.30 220.24 573.05 221.24 578.19 220.96
  C 580.22 220.85 581.29 220.09 582.15 218.16
  C 584.19 213.60 584.90 212.42 587.88 209.13
  Q 592.33 204.24 594.75 198.37
  A 4.24 3.89 76.2 0 1 595.20 197.55
  Q 600.69 189.67 604.88 181.88
  Q 607.00 177.93 606.66 173.75
  A 2.04 2.03 81.1 0 1 608.22 171.60
  Q 612.18 170.68 614.27 173.36
  A 1.01 1.00 36.3 0 1 614.42 174.32
  L 611.04 183.62
  A 15.89 15.89 0.0 0 1 609.36 186.98
  C 607.00 190.56 605.38 194.08 602.95 197.46
  Q 597.56 204.95 590.12 217.10
  C 587.76 220.94 586.73 224.31 582.80 227.00
  A 1.68 1.68 0.0 0 0 582.51 229.51
  Q 586.64 234.03 591.17 241.89
  Q 593.06 245.18 594.43 249.30
  C 597.00 257.07 599.61 263.55 599.69 271.44
  Q 599.84 284.84 599.69 291.75
  C 599.61 295.26 599.31 298.80 595.74 299.80
  C 588.01 301.97 583.17 298.29 575.78 296.90
  Q 571.22 296.04 567.63 292.55
  Q 563.29 288.34 560.12 283.88
  A 7.90 7.85 23.4 0 1 558.74 280.43
  C 557.62 272.62 557.32 269.33 554.13 262.39
  A 11.14 10.67 -65.1 0 1 553.38 260.20
  C 552.18 255.13 551.93 250.92 548.36 246.27
  A 2.29 2.29 0.0 0 1 549.44 242.70
  L 552.10 241.79
  A 2.13 2.12 -12.1 0 0 553.54 239.58
  L 552.52 228.64
  A 2.32 2.31 8.4 0 0 551.08 226.71
  Q 547.54 225.27 542.43 225.31
  A 1.23 1.23 0.0 0 0 541.35 225.95
  Q 539.76 228.85 538.54 230.61
  C 532.27 239.64 535.27 255.64 538.09 266.33
  Q 541.71 279.96 540.76 294.99
  C 539.57 313.74 539.05 324.85 535.73 340.48
  Q 534.91 344.33 534.82 358.49
  C 534.79 363.71 531.80 370.40 530.07 375.57
  A 10.71 10.38 57.2 0 0 529.57 378.06
  C 528.93 385.91 529.37 390.00 527.23 394.85
  Q 524.94 400.05 521.54 408.02
  Q 521.14 408.95 517.22 414.17
  Q 515.11 416.98 511.82 419.36
  C 505.64 423.83 501.20 426.69 493.95 427.18
  C 486.20 427.70 474.30 426.71 467.96 421.90
  Q 463.10 418.21 460.60 416.00
  C 456.92 412.73 458.40 410.42 460.39 405.95
  Q 462.92 400.27 467.78 388.05
  Q 469.09 384.77 472.97 379.97
  Q 476.93 375.08 482.58 368.57
  C 484.60 366.24 487.02 361.94 488.23 358.43
  C 489.44 354.90 491.63 351.03 492.54 347.00
  C 493.63 342.15 494.18 334.79 495.28 332.05
  Q 502.61 313.82 504.11 310.17
  A 15.81 15.69 -31.0 0 0 505.20 305.88
  C 506.06 297.98 506.07 292.87 508.31 287.82
  Q 511.64 280.37 511.38 269.26
  Q 511.06 255.11 512.73 242.51
  C 515.25 223.51 517.23 213.28 517.30 199.00
  Q 517.37 185.89 517.30 157.01
  Q 517.29 154.56 516.60 152.57
  A 1.84 1.83 4.2 0 0 515.69 151.52
  Q 511.00 149.09 507.69 148.41
  Q 507.03 148.28 506.67 147.48
  A 0.87 0.87 0.0 0 1 507.38 146.25
  L 513.48 145.68
  A 1.53 1.50 -34.9 0 1 514.26 145.81
  Q 517.94 147.45 524.64 149.59
  C 528.06 150.68 532.22 153.81 535.74 154.71
  Q 539.34 155.64 543.50 155.75
  A 3.22 3.22 0.0 0 1 545.86 156.88
  C 548.07 159.46 551.82 162.89 552.33 167.44
  Q 553.00 173.44 553.09 175.52
  A 7.65 7.57 -59.2 0 0 553.83 178.52
  L 554.54 180.01
  A 1.84 1.83 47.5 0 1 554.47 181.71
  Q 553.24 183.87 552.54 192.00
  C 552.14 196.64 548.54 200.11 547.25 204.49
  Q 545.12 211.76 543.91 218.17
  A 1.11 1.11 0.0 0 0 544.28 219.22
  Z"
/>
<path fill="#151618" d="
  M 465.59 205.29
  A 1.36 1.35 -34.7 0 1 468.08 205.74
  C 468.82 209.74 468.91 213.07 472.18 214.77
  C 475.63 216.56 478.54 218.39 480.74 221.53
  C 483.27 225.14 480.62 233.29 484.65 236.06
  A 1.78 1.77 54.2 0 0 486.12 236.30
  C 489.12 235.42 492.14 234.65 493.35 238.19
  Q 496.25 246.72 495.40 256.53
  C 495.14 259.40 494.77 265.71 490.22 264.80
  C 487.57 264.28 488.05 258.06 484.61 258.95
  C 483.09 259.34 481.72 261.72 480.84 262.68
  A 3.49 3.48 8.3 0 1 479.79 263.46
  C 472.90 266.73 465.54 260.07 463.56 254.09
  Q 462.67 251.41 463.56 244.93
  C 465.13 233.50 464.37 217.36 464.95 208.27
  Q 465.08 206.11 465.59 205.29
  Z"
/>
<path fill="#151618" d="
  M 1486.99 268.99
  Q 1490.64 269.71 1494.70 268.39
  Q 1500.97 266.35 1510.91 263.40
  Q 1515.01 262.18 1524.34 256.58
  Q 1526.39 255.35 1533.31 253.67
  C 1538.74 252.34 1542.95 250.51 1546.46 246.72
  C 1549.61 243.31 1551.92 238.79 1554.67 235.21
  Q 1561.61 226.22 1574.05 221.99
  C 1578.49 220.47 1581.04 222.00 1585.02 224.75
  Q 1590.52 228.55 1594.16 231.83
  C 1595.76 233.27 1596.45 235.45 1596.42 237.83
  C 1596.39 240.86 1596.29 247.30 1594.58 250.09
  A 1.99 1.98 -86.6 0 1 1593.74 250.84
  C 1589.33 252.97 1586.57 253.00 1580.79 253.36
  A 7.74 7.66 -56.2 0 0 1578.82 253.76
  Q 1574.23 255.36 1573.53 255.80
  Q 1569.36 258.40 1563.73 261.45
  C 1561.29 262.78 1559.99 265.43 1558.02 267.48
  C 1553.43 272.23 1551.37 273.78 1548.54 277.69
  Q 1547.84 278.65 1545.01 281.48
  Q 1540.28 286.20 1533.71 294.93
  Q 1529.98 299.89 1527.48 302.33
  Q 1524.93 304.81 1521.36 309.85
  Q 1519.71 312.17 1515.87 315.63
  A 10.76 10.42 -4.0 0 0 1514.34 317.33
  Q 1511.29 321.49 1505.91 326.67
  A 25.23 24.91 -4.2 0 0 1503.14 329.84
  Q 1494.15 342.12 1485.74 351.24
  Q 1480.93 356.45 1478.51 359.52
  Q 1472.73 366.85 1471.56 368.06
  C 1467.89 371.88 1465.77 375.25 1461.51 379.36
  Q 1457.91 382.84 1454.29 387.95
  C 1450.23 393.67 1445.66 398.03 1441.68 402.94
  Q 1438.10 407.36 1432.91 412.66
  Q 1428.90 416.76 1424.20 422.45
  C 1421.62 425.57 1416.49 428.26 1414.01 429.84
  C 1408.85 433.15 1403.37 435.00 1397.44 436.42
  A 0.92 0.91 76.3 0 1 1396.34 435.75
  Q 1394.85 429.81 1396.15 424.83
  Q 1396.30 424.26 1399.33 417.10
  C 1400.61 414.07 1401.88 410.36 1404.13 407.03
  Q 1408.40 400.73 1411.50 396.01
  Q 1412.05 395.17 1419.43 386.63
  Q 1423.30 382.15 1428.08 377.90
  Q 1445.58 362.33 1461.46 347.71
  C 1464.01 345.35 1466.92 342.48 1469.46 339.41
  C 1471.26 337.25 1473.17 335.74 1475.25 333.27
  Q 1484.76 321.99 1492.08 312.03
  A 0.44 0.44 0.0 0 0 1491.78 311.33
  Q 1491.32 311.28 1490.82 311.59
  Q 1485.85 314.66 1481.13 317.64
  Q 1479.78 318.49 1470.12 320.46
  A 3.29 3.20 -40.0 0 1 1468.37 320.33
  L 1462.54 318.21
  A 3.63 3.63 0.0 0 1 1460.16 315.11
  C 1459.87 311.63 1460.86 307.55 1462.49 303.77
  Q 1465.36 297.14 1467.17 290.59
  Q 1467.69 288.73 1468.94 286.85
  C 1471.94 282.36 1472.79 277.35 1475.40 271.94
  C 1477.16 268.29 1479.96 265.53 1481.94 262.18
  Q 1483.05 260.29 1484.83 258.01
  Q 1491.02 250.07 1497.41 243.91
  Q 1498.83 242.54 1500.38 242.87
  A 1.32 1.30 79.2 0 1 1501.22 243.45
  Q 1502.68 245.72 1504.92 246.92
  C 1507.28 248.18 1508.26 250.28 1506.00 252.02
  Q 1496.77 259.14 1491.70 264.61
  A 1.32 1.21 2.5 0 1 1491.45 264.82
  L 1486.78 267.93
  A 0.59 0.58 33.9 0 0 1486.99 268.99
  Z"
/>
<path fill="#151618" d="
  M 1684.83 247.39
  A 0.98 0.97 0.9 0 1 1685.89 248.48
  C 1685.16 254.42 1686.57 262.82 1693.30 264.98
  Q 1694.98 265.52 1695.58 267.99
  Q 1697.05 274.08 1699.47 283.52
  A 2.26 2.25 -3.6 0 0 1701.38 285.20
  C 1704.00 285.51 1707.26 285.91 1708.28 288.71
  C 1710.84 295.74 1713.63 301.63 1713.77 308.25
  Q 1713.88 313.81 1713.79 338.24
  Q 1713.78 342.68 1711.79 348.36
  C 1709.91 353.75 1707.76 359.67 1706.91 365.71
  Q 1706.73 366.97 1704.30 372.21
  Q 1702.62 375.84 1702.23 380.47
  C 1701.78 385.69 1701.00 389.41 1698.92 392.99
  C 1694.89 399.90 1692.54 408.11 1687.54 414.74
  Q 1680.37 424.24 1669.18 432.32
  Q 1661.20 438.08 1651.75 438.01
  C 1638.61 437.91 1626.34 437.63 1614.25 438.57
  Q 1611.52 438.78 1604.77 440.25
  Q 1597.91 441.75 1590.43 441.43
  C 1585.17 441.21 1581.27 440.28 1574.28 439.05
  C 1566.76 437.72 1557.83 438.27 1551.01 437.83
  C 1547.47 437.60 1544.96 436.49 1540.48 434.65
  C 1531.04 430.76 1521.19 424.75 1515.90 415.92
  Q 1513.72 412.29 1512.23 410.42
  A 8.70 8.57 16.3 0 1 1510.86 407.96
  Q 1508.54 401.46 1508.00 396.48
  Q 1507.24 389.41 1507.70 376.78
  C 1507.82 373.17 1507.91 367.86 1508.98 363.97
  C 1509.89 360.68 1511.70 357.22 1512.89 352.73
  Q 1516.93 337.49 1520.07 329.31
  Q 1522.02 324.23 1527.50 316.49
  C 1532.60 309.28 1536.84 302.01 1541.61 295.44
  Q 1546.98 288.03 1548.40 286.32
  C 1549.11 285.46 1549.75 283.87 1550.64 282.89
  Q 1551.96 281.40 1559.52 272.94
  Q 1561.90 270.28 1563.76 268.83
  Q 1565.88 267.18 1567.62 265.43
  A 3.56 3.53 -73.0 0 1 1569.43 264.46
  Q 1572.70 263.81 1576.05 265.44
  A 1.93 1.92 -88.3 0 1 1576.99 266.44
  C 1580.14 274.14 1577.17 280.82 1574.15 287.99
  A 10.73 10.28 63.0 0 0 1573.50 290.15
  Q 1571.61 300.09 1566.37 308.39
  Q 1563.21 313.39 1561.87 315.94
  C 1558.12 323.03 1555.66 326.73 1551.45 333.95
  Q 1548.78 338.52 1548.71 343.25
  Q 1548.59 350.88 1548.92 364.87
  A 4.07 4.06 -68.9 0 0 1550.17 367.71
  Q 1555.29 372.65 1562.51 372.72
  Q 1575.80 372.86 1585.50 373.89
  C 1592.96 374.68 1600.52 373.48 1608.13 373.16
  C 1616.50 372.81 1622.82 371.45 1628.47 367.19
  Q 1637.95 360.04 1639.68 358.45
  Q 1641.77 356.53 1643.31 353.09
  Q 1647.69 343.30 1650.08 333.95
  A 12.33 11.98 -23.8 0 1 1651.33 330.87
  Q 1653.77 326.61 1654.82 321.60
  C 1656.38 314.21 1658.24 309.71 1660.95 300.77
  Q 1661.25 299.80 1663.98 296.02
  A 7.40 7.29 -23.0 0 0 1665.28 292.86
  Q 1666.87 282.83 1666.87 281.50
  Q 1666.82 273.46 1667.30 266.26
  A 1.83 1.82 89.3 0 1 1668.94 264.57
  L 1677.46 263.77
  A 1.59 1.58 87.4 0 0 1678.90 262.19
  L 1678.90 249.87
  A 2.12 2.11 -2.7 0 1 1680.82 247.77
  L 1684.83 247.39
  Z"
/>
<path fill="#151618" d="
  M 169.32 303.75
  Q 169.52 306.66 167.82 309.22
  Q 164.67 313.97 162.40 317.16
  A 12.03 11.17 -6.0 0 1 160.82 318.97
  C 158.76 320.89 157.07 322.32 158.97 325.27
  C 160.17 327.12 161.15 328.25 163.44 328.89
  Q 173.65 331.74 181.71 326.04
  Q 189.15 320.78 194.66 317.41
  C 198.16 315.27 201.71 311.21 205.22 308.65
  Q 206.75 307.53 216.64 300.15
  Q 227.63 291.96 240.74 285.77
  C 246.77 282.93 252.47 281.22 259.84 278.80
  Q 263.80 277.50 267.42 275.83
  Q 277.12 271.35 291.05 265.80
  A 2.88 2.86 48.2 0 1 293.51 265.95
  C 296.82 267.78 300.33 269.80 303.87 268.90
  A 1.37 1.34 2.3 0 0 304.81 268.05
  L 305.67 265.68
  A 1.43 1.39 -0.8 0 1 306.50 264.85
  Q 307.96 264.30 309.66 264.92
  A 1.08 1.07 -2.8 0 1 310.26 265.46
  L 311.53 268.13
  A 2.11 2.10 -9.3 0 0 313.21 269.33
  Q 318.16 269.90 320.95 268.85
  A 1.90 1.88 4.5 0 0 321.94 268.01
  L 323.77 264.84
  A 1.10 1.07 6.8 0 1 324.42 264.34
  C 328.10 263.36 328.74 266.89 331.21 267.71
  Q 337.09 269.65 343.06 272.41
  A 8.47 8.44 -29.6 0 0 345.81 273.16
  Q 351.25 273.70 355.93 276.07
  A 2.20 2.19 -4.8 0 1 356.74 276.75
  C 358.62 279.27 358.51 285.01 358.43 287.93
  C 358.18 297.10 352.93 303.05 347.31 309.95
  Q 343.20 314.99 338.73 319.46
  A 14.20 14.05 80.5 0 0 335.95 323.41
  Q 331.05 333.78 323.60 343.77
  Q 322.69 345.00 323.14 347.39
  C 323.66 350.08 328.78 354.12 332.61 357.64
  C 334.66 359.51 333.22 364.22 332.39 366.20
  A 2.05 2.03 43.3 0 0 332.45 367.92
  Q 333.74 370.49 334.60 371.18
  C 337.35 373.39 345.23 374.79 346.14 381.06
  Q 346.90 386.34 346.54 393.52
  C 345.85 407.46 323.70 405.51 314.00 405.58
  Q 305.52 405.64 301.33 407.13
  Q 300.30 407.50 290.61 411.18
  A 15.09 13.68 -45.3 0 0 288.70 412.07
  Q 282.38 415.52 279.72 415.75
  Q 271.10 416.49 264.98 419.14
  Q 260.49 421.08 257.52 421.57
  Q 254.74 422.02 249.51 424.31
  C 241.82 427.69 233.09 427.80 224.98 426.46
  A 2.19 2.19 0.0 0 1 223.15 424.45
  Q 222.99 422.18 222.38 419.97
  C 221.59 417.11 215.78 413.33 213.92 412.03
  Q 210.36 409.57 206.79 411.87
  A 1.58 1.58 0.0 0 0 206.10 413.52
  L 207.54 420.35
  A 0.05 0.03 -76.7 0 1 207.55 420.38
  Q 208.20 424.25 205.14 433.93
  C 204.44 436.14 203.71 437.10 201.44 437.39
  C 196.71 437.99 192.75 438.22 188.50 440.24
  Q 180.80 443.91 173.52 446.96
  A 2.90 2.88 -44.6 0 1 171.25 446.95
  Q 166.59 444.93 162.32 444.18
  C 155.87 443.05 150.79 439.97 146.45 436.08
  Q 134.11 425.00 125.99 409.27
  Q 122.42 402.36 122.10 399.64
  Q 121.94 398.26 118.74 381.14
  Q 116.85 371.05 116.52 363.27
  C 116.04 352.01 115.19 340.86 118.97 330.71
  Q 119.87 328.28 123.44 322.56
  Q 125.36 319.47 128.05 314.43
  A 7.13 6.72 -24.9 0 0 128.65 312.93
  C 129.18 310.96 129.39 307.95 132.13 308.55
  A 1.08 1.08 0.0 0 1 132.88 309.14
  L 134.99 313.58
  A 1.40 1.39 71.5 0 0 136.53 314.35
  L 145.25 312.58
  A 5.30 5.11 25.5 0 0 146.51 312.16
  L 167.02 302.41
  A 1.62 1.61 -14.6 0 1 169.32 303.75
  Z
  M 243.97 309.58
  C 239.62 312.31 238.11 316.28 235.30 322.24
  C 233.22 326.64 233.44 329.48 227.53 330.78
  Q 221.78 332.04 216.53 332.13
  Q 212.66 332.21 209.56 333.81
  C 205.96 335.67 204.95 337.80 203.77 342.36
  Q 201.66 350.54 194.73 358.43
  Q 192.06 361.47 193.63 365.55
  A 1.21 1.19 -2.0 0 0 194.40 366.26
  Q 195.67 366.64 198.04 365.80
  Q 211.13 361.15 212.41 360.74
  A 16.41 12.95 -27.5 0 0 214.52 359.78
  L 220.15 356.85
  A 2.08 2.02 28.5 0 1 220.94 356.63
  Q 229.11 356.05 230.05 355.84
  C 232.00 355.38 232.95 355.09 233.54 353.01
  C 234.21 350.66 235.05 345.38 237.08 342.33
  Q 241.28 336.03 244.22 327.94
  Q 247.31 319.44 245.58 310.29
  A 1.07 1.06 68.6 0 0 243.97 309.58
  Z"
/>
</svg>
